<svg width="28" height="29" viewBox="0 0 28 29" fill="none" xmlns="http://www.w3.org/2000/svg">
<path d="M23.2867 10.9533C22.505 10.09 21.3267 9.5883 19.6934 9.4133V8.52663C19.6934 6.9283 19.0167 5.3883 17.8267 4.31497C16.625 3.2183 15.0617 2.70497 13.44 2.85663C10.6517 3.12497 8.3067 5.81996 8.3067 8.73663V9.4133C6.67336 9.5883 5.49503 10.09 4.71336 10.9533C3.5817 12.2133 3.6167 13.8933 3.74503 15.06L4.5617 21.5583C4.8067 23.8333 5.72836 26.1666 10.745 26.1666H17.255C22.2717 26.1666 23.1934 23.8333 23.4384 21.57L24.255 15.0483C24.3834 13.8933 24.4067 12.2133 23.2867 10.9533ZM13.6034 4.4783C14.77 4.3733 15.8784 4.73497 16.7417 5.51663C17.5934 6.28663 18.0717 7.3833 18.0717 8.52663V9.3433H9.92836V8.73663C9.92836 6.65997 11.6434 4.66497 13.6034 4.4783ZM9.82336 15.8416H9.8117C9.17003 15.8416 8.64503 15.3166 8.64503 14.675C8.64503 14.0333 9.17003 13.5083 9.8117 13.5083C10.465 13.5083 10.99 14.0333 10.99 14.675C10.99 15.3166 10.465 15.8416 9.82336 15.8416ZM17.99 15.8416H17.9784C17.3367 15.8416 16.8117 15.3166 16.8117 14.675C16.8117 14.0333 17.3367 13.5083 17.9784 13.5083C18.6317 13.5083 19.1567 14.0333 19.1567 14.675C19.1567 15.3166 18.6317 15.8416 17.99 15.8416Z" fill="white"/>
<circle cx="18" cy="14.5" r="2" fill="white"/>
<circle cx="10" cy="14.5" r="2" fill="white"/>
<path d="M14.057 22.6193C13.699 22.6136 13.3411 22.5455 12.9831 22.4148C12.6252 22.2841 12.2985 22.0639 12.003 21.7543C11.7076 21.4418 11.4703 21.0199 11.2914 20.4886C11.1124 19.9545 11.0229 19.2841 11.0229 18.4773C11.0229 17.7045 11.0953 17.0199 11.2402 16.4233C11.3851 15.8239 11.5953 15.3196 11.8709 14.9105C12.1465 14.4986 12.4789 14.1861 12.8681 13.973C13.2601 13.7599 13.7019 13.6534 14.1934 13.6534C14.682 13.6534 15.1167 13.7514 15.4973 13.9474C15.8809 14.1406 16.1934 14.4105 16.4348 14.7571C16.6763 15.1037 16.8326 15.5028 16.9036 15.9545H15.8638C15.7672 15.5625 15.5797 15.2372 15.3013 14.9787C15.0229 14.7202 14.6536 14.5909 14.1934 14.5909C13.5172 14.5909 12.9846 14.8849 12.5953 15.473C12.209 16.0611 12.0144 16.8864 12.0115 17.9489H12.0797C12.2388 17.7074 12.4277 17.5014 12.6465 17.331C12.8681 17.1577 13.1124 17.0241 13.3794 16.9304C13.6465 16.8366 13.9292 16.7898 14.2275 16.7898C14.7275 16.7898 15.1848 16.9148 15.5996 17.1648C16.0144 17.4119 16.3468 17.7543 16.5968 18.1918C16.8468 18.6264 16.9718 19.125 16.9718 19.6875C16.9718 20.2273 16.851 20.7216 16.6096 21.1705C16.3681 21.6165 16.0286 21.9716 15.5911 22.2358C15.1564 22.4972 14.6451 22.625 14.057 22.6193ZM14.057 21.6818C14.415 21.6818 14.736 21.5923 15.0201 21.4134C15.307 21.2344 15.5328 20.9943 15.6976 20.6932C15.8652 20.392 15.949 20.0568 15.949 19.6875C15.949 19.3267 15.8681 18.9986 15.7061 18.7031C15.5471 18.4048 15.3269 18.1676 15.0456 17.9915C14.7672 17.8153 14.449 17.7273 14.0911 17.7273C13.8212 17.7273 13.5698 17.7812 13.3368 17.8892C13.1039 17.9943 12.8993 18.1392 12.7232 18.3239C12.5499 18.5085 12.4135 18.7202 12.3141 18.9588C12.2147 19.1946 12.165 19.4432 12.165 19.7045C12.165 20.0511 12.2459 20.375 12.4078 20.6761C12.5726 20.9773 12.7971 21.2202 13.0811 21.4048C13.3681 21.5895 13.6934 21.6818 14.057 21.6818Z" fill="#64099B"/>
</svg>
